<mxfile host="app.diagrams.net" modified="2022-11-16T13:46:30.261Z" agent="5.0 (Windows NT 10.0; Win64; x64) AppleWebKit/537.36 (KHTML, like Gecko) Chrome/107.0.0.0 Safari/537.36" etag="nkEZLtiypiXBUv5quTDZ" version="20.5.3" type="github">
  <diagram id="3rsK4sRMyDqufHuRaAZe" name="Page-1">
    <mxGraphModel dx="1422" dy="698" grid="1" gridSize="10" guides="1" tooltips="1" connect="1" arrows="1" fold="1" page="1" pageScale="1" pageWidth="827" pageHeight="1169" math="0" shadow="0">
      <root>
        <mxCell id="0" />
        <mxCell id="1" parent="0" />
        <mxCell id="U90KXrBJ-N6k7Ng19d0M-49" value="" style="rounded=1;whiteSpace=wrap;html=1;fillColor=none;" parent="1" vertex="1">
          <mxGeometry x="190" y="500" width="270" height="60" as="geometry" />
        </mxCell>
        <mxCell id="U90KXrBJ-N6k7Ng19d0M-1" value="" style="rounded=1;whiteSpace=wrap;html=1;fillColor=none;" parent="1" vertex="1">
          <mxGeometry x="190" y="330" width="270" height="130" as="geometry" />
        </mxCell>
        <mxCell id="U90KXrBJ-N6k7Ng19d0M-61" style="edgeStyle=orthogonalEdgeStyle;rounded=0;orthogonalLoop=1;jettySize=auto;html=1;entryX=0;entryY=0.5;entryDx=0;entryDy=0;fontSize=12;" parent="1" source="U90KXrBJ-N6k7Ng19d0M-1" target="U90KXrBJ-N6k7Ng19d0M-60" edge="1">
          <mxGeometry relative="1" as="geometry" />
        </mxCell>
        <mxCell id="U90KXrBJ-N6k7Ng19d0M-2" value="前一个区块的哈希值" style="rounded=1;whiteSpace=wrap;html=1;fillColor=default;" parent="1" vertex="1">
          <mxGeometry x="215" y="360" width="130" height="30" as="geometry" />
        </mxCell>
        <mxCell id="U90KXrBJ-N6k7Ng19d0M-4" value="默克树根" style="rounded=1;whiteSpace=wrap;html=1;fillColor=default;" parent="1" vertex="1">
          <mxGeometry x="275" y="410" width="70" height="30" as="geometry" />
        </mxCell>
        <mxCell id="U90KXrBJ-N6k7Ng19d0M-5" value="时间戳" style="rounded=1;whiteSpace=wrap;html=1;fillColor=default;" parent="1" vertex="1">
          <mxGeometry x="373.5" y="410" width="70" height="30" as="geometry" />
        </mxCell>
        <mxCell id="U90KXrBJ-N6k7Ng19d0M-50" value="&lt;span style=&quot;font-size: 16px;&quot;&gt;&lt;b&gt;区块体&lt;/b&gt;&lt;/span&gt;" style="text;html=1;strokeColor=none;fillColor=none;align=center;verticalAlign=middle;whiteSpace=wrap;rounded=0;" parent="1" vertex="1">
          <mxGeometry x="180" y="500" width="120" height="30" as="geometry" />
        </mxCell>
        <mxCell id="U90KXrBJ-N6k7Ng19d0M-51" value="&lt;span style=&quot;font-size: 16px;&quot;&gt;&lt;b&gt;区块头&lt;/b&gt;&lt;/span&gt;" style="text;html=1;strokeColor=none;fillColor=none;align=center;verticalAlign=middle;whiteSpace=wrap;rounded=0;" parent="1" vertex="1">
          <mxGeometry x="170" y="330" width="120" height="30" as="geometry" />
        </mxCell>
        <mxCell id="U90KXrBJ-N6k7Ng19d0M-58" style="edgeStyle=orthogonalEdgeStyle;rounded=0;orthogonalLoop=1;jettySize=auto;html=1;entryX=0;entryY=0.5;entryDx=0;entryDy=0;fontSize=12;" parent="1" source="U90KXrBJ-N6k7Ng19d0M-57" target="U90KXrBJ-N6k7Ng19d0M-1" edge="1">
          <mxGeometry relative="1" as="geometry" />
        </mxCell>
        <mxCell id="U90KXrBJ-N6k7Ng19d0M-57" value="&lt;font style=&quot;font-size: 12px;&quot;&gt;前一个区块&lt;/font&gt;" style="rounded=1;whiteSpace=wrap;html=1;fontSize=16;fillColor=default;" parent="1" vertex="1">
          <mxGeometry x="80" y="365" width="70" height="60" as="geometry" />
        </mxCell>
        <mxCell id="U90KXrBJ-N6k7Ng19d0M-60" value="&lt;font style=&quot;font-size: 12px;&quot;&gt;后一个区块&lt;/font&gt;" style="rounded=1;whiteSpace=wrap;html=1;fontSize=16;fillColor=default;" parent="1" vertex="1">
          <mxGeometry x="500" y="365" width="70" height="60" as="geometry" />
        </mxCell>
        <mxCell id="U90KXrBJ-N6k7Ng19d0M-115" value="区块序号" style="rounded=1;whiteSpace=wrap;html=1;fillColor=default;" parent="1" vertex="1">
          <mxGeometry x="368.5" y="360" width="75" height="30" as="geometry" />
        </mxCell>
        <mxCell id="Eku0pKUzbgy1wHCtAKzw-1" value="默克树" style="rounded=1;whiteSpace=wrap;html=1;fillColor=default;" vertex="1" parent="1">
          <mxGeometry x="290" y="520" width="70" height="30" as="geometry" />
        </mxCell>
      </root>
    </mxGraphModel>
  </diagram>
</mxfile>
